<svg id="Group_35" data-name="Group 35" xmlns="http://www.w3.org/2000/svg" width="31.233" height="31.277" viewBox="0 0 31.233 31.277">
  <g id="Group_34" data-name="Group 34" transform="translate(0 0)">
    <path id="Path_143" data-name="Path 143" d="M-799.932,111.827c0-.828-.026-1.658.007-2.485a8.956,8.956,0,0,1,.649-2.8,15.864,15.864,0,0,1,11.365-10.227,13.838,13.838,0,0,1,3.857-.308,16.565,16.565,0,0,1,2.7.254,14.73,14.73,0,0,1,5.548,2.3,15.092,15.092,0,0,1,6.737,10.033,15.134,15.134,0,0,1-4.087,13.9,15.08,15.08,0,0,1-8.076,4.48,16.26,16.26,0,0,1-4.606.243A15.14,15.14,0,0,1-793,124.757a15.759,15.759,0,0,1-6.288-8.132,11.026,11.026,0,0,1-.684-4.054c.006-.248,0-.5,0-.744Zm13.3.391v10.076h3.907c.031-3.336.061-6.653.092-9.975.07-.007.1-.013.139-.014,1.005-.031,2.009-.066,3.015-.089.183,0,.256-.049.276-.246.1-.956.212-1.912.322-2.867.031-.263.069-.525.107-.815h-3.827a.359.359,0,0,1-.021-.081c.043-.99.067-1.981.139-2.968a1.035,1.035,0,0,1,.836-1.065,6.336,6.336,0,0,1,.86-.113c.615-.036,1.231-.056,1.846-.074.16,0,.221-.056.223-.223.007-.524.041-1.047.042-1.571,0-.466-.014-.934-.049-1.4-.02-.278-.1-.355-.372-.368q-1.208-.058-2.416-.084a5.289,5.289,0,0,0-2.093.387,4.318,4.318,0,0,0-2.3,1.793,5.688,5.688,0,0,0-.686,2.623c-.046.961-.035,1.925-.049,2.888,0,.082,0,.163,0,.267h-3.347v3.919Z" transform="translate(799.98 -96)" fill="#fff"/>
  </g>
</svg>
