<svg id="Group_39" data-name="Group 39" xmlns="http://www.w3.org/2000/svg" width="31.336" height="31.33" viewBox="0 0 31.336 31.33">
  <g id="Group_38" data-name="Group 38" transform="translate(0 0)">
    <path id="Path_145" data-name="Path 145" d="M-558.629,96a15.533,15.533,0,0,1,10.5,3.539,15.369,15.369,0,0,1,5.329,8.849,14.992,14.992,0,0,1,.285,4.516,15.346,15.346,0,0,1-4.153,9.429,15.4,15.4,0,0,1-8.786,4.752,15.211,15.211,0,0,1-11.161-2.3,15.313,15.313,0,0,1-6.411-8.279,15.086,15.086,0,0,1-.719-5.985,15.339,15.339,0,0,1,4.667-10.093,15.3,15.3,0,0,1,7.565-4.11A14.645,14.645,0,0,1-558.629,96Zm2.046,23.546v-.3c0-1.346-.013-2.692,0-4.038.01-.771.05-1.542.109-2.31a1.694,1.694,0,0,1,1.382-1.729,1.683,1.683,0,0,1,2.206,1.414c.109,1.011.142,2.033.165,3.05.027,1.225.006,2.451.006,3.676v.242h3.566c0-.094,0-.178,0-.261-.035-2.166-.055-4.333-.111-6.5a8.766,8.766,0,0,0-.374-2.36,3.033,3.033,0,0,0-2.253-2.206,6.765,6.765,0,0,0-1.368-.145,3.486,3.486,0,0,0-3.208,1.375c-.083.115-.182.219-.274.328l-.045-.024v-1.529h-3.36v11.32Zm-5.666,0c-.031-3.757-.062-7.49-.094-11.249l-3.462-.107v11.356Zm-1.734-12.857a2.2,2.2,0,0,0,1.939-2.024,2.157,2.157,0,0,0-2-1.955,1.971,1.971,0,0,0-2.051,1.935A2.027,2.027,0,0,0-563.982,106.692Z" transform="translate(573.79 -96)" fill="#fff"/>
  </g>
</svg>
