<svg width="16" height="13" viewBox="0 0 16 13" fill="none" xmlns="http://www.w3.org/2000/svg">
<path d="M1.16667 0H14.8333C15.4773 0 16 0.522667 16 1.16667V10.5C16 10.8094 15.8771 11.1062 15.6583 11.325C15.4395 11.5437 15.1428 11.6667 14.8333 11.6667H1.16667C0.857247 11.6667 0.560501 11.5437 0.341709 11.325C0.122916 11.1062 0 10.8094 0 10.5L0 1.16667C0 0.522667 0.522667 0 1.16667 0ZM1 2.94133V10.5C1 10.592 1.07467 10.6667 1.16667 10.6667H14.8333C14.8775 10.6667 14.9199 10.6491 14.9512 10.6179C14.9824 10.5866 15 10.5442 15 10.5V2.94133L8.65333 7.23C8.25867 7.49667 7.74133 7.49667 7.34667 7.23L1 2.94133ZM1 1.16667V1.73467L7.90667 6.40133C7.93423 6.41996 7.96673 6.42992 8 6.42992C8.03327 6.42992 8.06577 6.41996 8.09333 6.40133L15 1.73467V1.16667C15 1.12246 14.9824 1.08007 14.9512 1.04882C14.9199 1.01756 14.8775 1 14.8333 1H1.16667C1.12246 1 1.08007 1.01756 1.04882 1.04882C1.01756 1.08007 1 1.12246 1 1.16667Z" fill="white"/>
<path d="M12 6C10.16 6 8.66666 7.49333 8.66666 9.33333C8.66666 11.1733 10.16 12.6667 12 12.6667H13.6667V12H12C10.5533 12 9.33332 10.78 9.33332 9.33333C9.33332 7.88667 10.5533 6.66667 12 6.66667C13.4467 6.66667 14.6667 7.88667 14.6667 9.33333V9.81C14.6667 10.0733 14.43 10.3333 14.1667 10.3333C13.9033 10.3333 13.6667 10.0733 13.6667 9.81V9.33333C13.6667 8.41333 12.92 7.66667 12 7.66667C11.08 7.66667 10.3333 8.41333 10.3333 9.33333C10.3333 10.2533 11.08 11 12 11C12.46 11 12.88 10.8133 13.18 10.51C13.3967 10.8067 13.77 11 14.1667 11C14.8233 11 15.3333 10.4667 15.3333 9.81V9.33333C15.3333 7.49333 13.84 6 12 6ZM12 10.3333C11.4467 10.3333 11 9.88667 11 9.33333C11 8.78 11.4467 8.33333 12 8.33333C12.5533 8.33333 13 8.78 13 9.33333C13 9.88667 12.5533 10.3333 12 10.3333Z" fill="white"/>
</svg>
