<svg width="12" height="19" viewBox="0 0 12 19" fill="none" xmlns="http://www.w3.org/2000/svg">
<path d="M5 15H6.33333V16.3333H5V15Z" fill="white"/>
<path d="M10.6667 0H1.33333C0.979711 0 0.640573 0.140476 0.390525 0.390524C0.140476 0.640573 0 0.979711 0 1.33333V17.3333C0 17.687 0.140476 18.0261 0.390525 18.2761C0.640573 18.5262 0.979711 18.6667 1.33333 18.6667H10.6667C11.0203 18.6667 11.3594 18.5262 11.6095 18.2761C11.8595 18.0261 12 17.687 12 17.3333V1.33333C12 0.979711 11.8595 0.640573 11.6095 0.390524C11.3594 0.140476 11.0203 0 10.6667 0ZM1.33333 1.33333H10.6667V13.3333H1.33333V1.33333ZM1.33333 17.3333V14.6667H10.6667V17.3333H1.33333Z" fill="white"/>
</svg>
