<svg width="16" height="16" viewBox="0 0 16 16" fill="none" xmlns="http://www.w3.org/2000/svg">
<path d="M14.6666 7.00001V10.3333C14.6666 12.6667 13.3333 13.6667 11.3333 13.6667H4.66665C2.66665 13.6667 1.33331 12.6667 1.33331 10.3333V5.66668C1.33331 3.33334 2.66665 2.33334 4.66665 2.33334H9.33331" stroke="white" stroke-width="1.5" stroke-miterlimit="10" stroke-linecap="round" stroke-linejoin="round"/>
<path d="M4.66669 6L6.75336 7.66667C7.44002 8.21333 8.56669 8.21333 9.25336 7.66667L10.04 7.04" stroke="white" stroke-width="1.5" stroke-miterlimit="10" stroke-linecap="round" stroke-linejoin="round"/>
<path d="M13 5.33333C13.9205 5.33333 14.6666 4.58714 14.6666 3.66667C14.6666 2.74619 13.9205 2 13 2C12.0795 2 11.3333 2.74619 11.3333 3.66667C11.3333 4.58714 12.0795 5.33333 13 5.33333Z" stroke="white" stroke-width="1.5" stroke-miterlimit="10" stroke-linecap="round" stroke-linejoin="round"/>
</svg>
