<svg xmlns="http://www.w3.org/2000/svg" width="31.25" height="31.271" viewBox="0 0 31.25 31.271">
  <g id="Group_37" data-name="Group 37" transform="translate(0)">
    <g id="Group_36" data-name="Group 36" transform="translate(0 0)">
      <path id="Path_144" data-name="Path 144" d="M-655.636,111.794a14.094,14.094,0,0,1-.35,3.53,15.638,15.638,0,0,1-8.34,10.366,14.059,14.059,0,0,1-4.888,1.465,15.869,15.869,0,0,1-8.326-1.142,16.256,16.256,0,0,1-5.057-3.667,15.408,15.408,0,0,1-3.247-4.936,14.85,14.85,0,0,1-1.032-6.083,14.613,14.613,0,0,1,.6-4.185,15.579,15.579,0,0,1,11.5-10.808,12.422,12.422,0,0,1,2.755-.324,22.534,22.534,0,0,1,3.6.17,11.412,11.412,0,0,1,3.069.942,16.835,16.835,0,0,1,3.813,2.158,15.963,15.963,0,0,1,4.2,5.173,14.478,14.478,0,0,1,1.376,3.616A17.956,17.956,0,0,1-655.636,111.794Zm-20.07,5.322a10.628,10.628,0,0,1-6.728,1.737,3.867,3.867,0,0,0,.722.488,13.973,13.973,0,0,0,7.329,1.469,18.179,18.179,0,0,0,2.857-.5,13.216,13.216,0,0,0,6.811-4.929,11.891,11.891,0,0,0,1.437-2.736,10.719,10.719,0,0,0,.945-3.309c.061-.668.05-1.343.082-2.014a.46.46,0,0,1,.114-.273c.26-.27.542-.519.8-.789.384-.4.76-.8,1.132-1.207.045-.049.044-.139.064-.21a1.063,1.063,0,0,0-.22-.027,1.034,1.034,0,0,0-.224.062c-.456.149-.912.3-1.37.446a1.444,1.444,0,0,1-.257.033c.333-.4.675-.752.953-1.152a4.358,4.358,0,0,0,.692-1.369c-.155.049-.247.075-.338.107-.553.194-1.118.361-1.655.591a1.414,1.414,0,0,1-1.548-.248,4.387,4.387,0,0,0-3.241-.853,4.592,4.592,0,0,0-2.629,1.131,4.568,4.568,0,0,0-1.52,3.449c-.011.374,0,.748,0,1.146-.4-.056-.779-.1-1.153-.161a13.813,13.813,0,0,1-7.013-3.381c-.432-.388-.867-.772-1.3-1.162-.133-.121-.222-.093-.289.062a1.159,1.159,0,0,0-.083.218c-.078.38-.176.758-.219,1.143a4.642,4.642,0,0,0,.342,2.512,4.6,4.6,0,0,0,1.232,1.524c.112.1.212.211.318.316a.851.851,0,0,1-.346.021c-.47-.058-.939-.122-1.41-.178-.291-.035-.334.015-.288.307.012.077.028.153.045.229a4.393,4.393,0,0,0,1.891,2.934c.39.253.821.442,1.231.664.1.055.193.127.289.191l-.01.063a2.117,2.117,0,0,1-.354.1c-.359.036-.719.055-1.078.083-.279.022-.328.1-.219.349a4.99,4.99,0,0,0,3.181,2.885C-676.4,116.977-676.054,117.034-675.706,117.116Z" transform="translate(686.885 -96)" fill="#fff"/>
    </g>
  </g>
</svg>
