<svg id="Layer_1" data-name="Layer 1" xmlns="http://www.w3.org/2000/svg" viewBox="0 0 300 300"><defs><style>.cls-1{fill:#f79f1e;}</style></defs><path class="cls-1" d="M185.88,115.89a35.68,35.68,0,1,0-10.45,25.2,35.67,35.67,0,0,0,10.45-25.2Zm-35.65,31.64a31.67,31.67,0,1,1,22.37-9.28A31.65,31.65,0,0,1,150.23,147.53Zm58.62-14.77c-1-.92-2.94-1.69-6.32-.14-.66.29-1,.88-1.6,1.91-.14.26-.37.64-.46.77h0a1.53,1.53,0,0,0-.31.52c-.72,1.87-1.34,3.72-1.95,5.5h0a65.31,65.31,0,0,1-5.57,13.12c-.71.72-2.25,2.08-4.6,4.09a39.81,39.81,0,0,0,1.65-5.42,2.11,2.11,0,0,0,.05-.35c.16-5.55-2.71-8-5.22-8.45a5.73,5.73,0,0,0-6.37,4c-.36.83-.73,1.67-1.1,2.56h0a52.51,52.51,0,0,1-9.9,16.45,18,18,0,0,0-8,10.78c-1.13,4-1.51,9-1.22,16.56l-2.41,0a1.69,1.69,0,0,0-1.24.5,1.8,1.8,0,0,0-.53,1.24l-.1,13.84h0a1.76,1.76,0,0,0,1.73,1.76l30.57.25h0a1.77,1.77,0,0,0,1.76-1.74l.1-13.84a1.75,1.75,0,0,0-1.74-1.76l-2.33,0c-1.46-8.38.88-10.39,6.76-15.41h0a94.74,94.74,0,0,0,9.42-8.94c1.73-1.74,4.52-6.24,8.77-24.79,2.27-6.72,2.31-10.95.12-12.93Zm-24.6,75.91-27.05-.21.08-10.34,2.11,0h0a1.83,1.83,0,0,0,.4.05h.09l.3,0,24.16.18Zm21.14-64a1.54,1.54,0,0,0,0,.17c-3.78,16.49-6.37,21.72-7.88,23.2l-.06.07a92.31,92.31,0,0,1-9.13,8.67c-5.88,5-9.56,8.16-8,18.05l-18.77-.15c-.56-14.49,1.4-20.55,7.74-24.52h0a3.27,3.27,0,0,0,.35-.3,56,56,0,0,0,10.71-17.63c.38-.9.75-1.76,1.12-2.58l.06-.18a2.27,2.27,0,0,1,2.47-1.68c1.16.2,2.36,1.54,2.31,4.72-1.31,5.53-3.77,10.5-6.44,13h0a1.76,1.76,0,0,0,2.32,2.63c7.58-6.32,11.89-10,13.18-11.37h0a1.91,1.91,0,0,0,.24-.32,68.41,68.41,0,0,0,6-14c.57-1.68,1.16-3.41,1.82-5.15.17-.25.36-.57.61-1l.39-.65c1.17-.48,1.92-.49,2.16-.28.54.49,1,3-1.11,9.28Zm-26.5,57.21a1.76,1.76,0,0,1,2.1,1.32l.06.28a1.75,1.75,0,0,1-1.31,2.1,2.71,2.71,0,0,1-.4,0,1.75,1.75,0,0,1-1.7-1.36l-.07-.28a1.75,1.75,0,0,1,.23-1.32,1.7,1.7,0,0,1,1.09-.78Zm-32.73-6.74a1.76,1.76,0,0,0-1.25-.51l-2.41,0c.3-7.55-.09-12.57-1.22-16.56a18,18,0,0,0-8-10.78,52.4,52.4,0,0,1-9.9-16.45c-.37-.89-.73-1.73-1.1-2.55a5.73,5.73,0,0,0-6.37-4c-2.5.43-5.37,2.9-5.21,8.45h0a1.27,1.27,0,0,0,0,.34,40.91,40.91,0,0,0,1.64,5.43c-2.34-2-3.88-3.37-4.59-4.09a65.93,65.93,0,0,1-5.58-13.12c-.6-1.79-1.23-3.63-1.94-5.5a1.89,1.89,0,0,0-.31-.53,8.72,8.72,0,0,1-.46-.76c-.61-1-1-1.61-1.61-1.92-3.38-1.54-5.3-.77-6.32.15-2.19,2-2.15,6.2.12,12.92,4.26,18.57,7,23.07,8.77,24.8a94.74,94.74,0,0,0,9.42,8.94c5.87,5,8.22,7,6.76,15.41l-2.33,0h0a1.75,1.75,0,0,0-1.74,1.76l.11,13.84a1.74,1.74,0,0,0,1.75,1.74h0l30.57-.24a1.76,1.76,0,0,0,1.74-1.75l-.11-13.84h0a1.73,1.73,0,0,0-.52-1.24Zm-34-18.36a91.22,91.22,0,0,1-9.13-8.67L103,168c-1.5-1.48-4.09-6.71-7.87-23.2,0-.05,0-.11,0-.17-2.12-6.23-1.66-8.79-1.12-9.28.24-.21,1-.2,2.16.28.12.2.28.46.38.65.25.43.44.75.62,1,.65,1.74,1.24,3.47,1.81,5.15h0a69.54,69.54,0,0,0,6,14,1.54,1.54,0,0,0,.25.32c1.28,1.33,5.59,5.05,13.18,11.37a1.76,1.76,0,0,0,2.32-2.63c-2.67-2.49-5.13-7.46-6.44-13,0-3.17,1.15-4.52,2.31-4.72h0a2.26,2.26,0,0,1,2.46,1.68l.07.18c.37.83.74,1.68,1.12,2.59a56.09,56.09,0,0,0,10.71,17.62,2,2,0,0,0,.35.3c6.34,4,8.31,10,7.74,24.52l-18.76.15c1.52-9.89-2.16-13-8-18.05Zm4,31.92-.08-10.34,24.16-.19a1.47,1.47,0,0,0,.29.05h.09a2.87,2.87,0,0,0,.41-.05l2.11,0,.08,10.33Zm6.68-4.72-.07.28h0a1.75,1.75,0,0,1-1.7,1.36,1.67,1.67,0,0,1-.39-.05,1.74,1.74,0,0,1-1.32-2.1l.06-.27h0a1.76,1.76,0,0,1,3.27-.63,1.7,1.7,0,0,1,.14,1.41Zm19.21-95.74-7.53,7.53,7.53,7.52h0a1.76,1.76,0,0,1-2.48,2.48L130.86,117h0a1.74,1.74,0,0,1,0-2.48l8.76-8.77h0a1.76,1.76,0,0,1,2.48,2.48Zm27.51,6.6a1.75,1.75,0,0,1,0,2.47l-8.77,8.77h0a1.76,1.76,0,0,1-2.48-2.48l7.53-7.53-7.53-7.52a1.76,1.76,0,0,1,2.48-2.48Zm-14-12.07L148.28,130a1.79,1.79,0,0,1-.79,1.18,1.76,1.76,0,0,1-1.4.21,1.77,1.77,0,0,1-1.2-2.3l7.29-27.21h0a1.74,1.74,0,0,1,2.18-1.4,1.76,1.76,0,0,1,1.2,2.3Z"/></svg>