<svg id="Layer_1" data-name="Layer 1" xmlns="http://www.w3.org/2000/svg" viewBox="0 0 300 300"><defs><style>.cls-1{fill:#f79f1e;}</style></defs><path class="cls-1" d="M166.88,128.87H132v34.91h34.91Zm-3.09,31.66H135.06V132h28.73Z"/><path class="cls-1" d="M189.43,106.32h-12.2V79.75h-3.09v26.57H159.78V79.75h-3.09v26.57H142.17V79.75h-3.09v26.57H124.71V79.75h-3.09v26.57h-12.2v12.2H82.86v3.09h26.56v14.52H82.86v3.09h26.56v14.52H82.86v3.09h26.56V171H82.86v3.09h26.56v12.2h12.2v26.56h3.09V186.33h14.52v26.56h3.09V186.33h14.37v26.56h3.09V186.33h14.36v26.56h3.09V186.33h12.2v-12.2H216V171H189.43V156.67H216v-3.09H189.43V139.06H216V136H189.43V121.61H216v-3.09H189.43Zm-3.09,77.07H112.51v-74h73.83Z"/></svg>