<svg id="Layer_1" data-name="Layer 1" xmlns="http://www.w3.org/2000/svg" viewBox="0 0 300 300"><defs><style>.cls-1{fill:#f79f1e;fill-rule:evenodd;}</style></defs><path class="cls-1" d="M154.51,165.44a28.13,28.13,0,1,1,19.89-8.24A27.92,27.92,0,0,1,154.51,165.44Zm0-51.67a23.56,23.56,0,1,0,16.64,6.9,23.36,23.36,0,0,0-16.64-6.9Z"/><path class="cls-1" d="M146.94,114.92a2.33,2.33,0,0,1-2.18-1.58,25.07,25.07,0,0,0-9-12.6,25.56,25.56,0,0,0-15-5.08,2.3,2.3,0,0,1-1.86-1,2.18,2.18,0,0,1-.24-2.1A30.16,30.16,0,0,1,146.86,73a30.2,30.2,0,0,1,25,13.23,2.32,2.32,0,0,1,.35,1.75,2.22,2.22,0,0,1-1,1.46A25.58,25.58,0,0,0,159.38,111v.16a2.56,2.56,0,0,1,0,.79,2.26,2.26,0,0,1-2.49,2.06c-.8-.08-1.59-.12-2.38-.12a23.65,23.65,0,0,0-6.89,1c-.28,0-.48,0-.72,0ZM124.2,91.31a30.09,30.09,0,0,1,24.21,18.58,26.86,26.86,0,0,1,6.46-.67,29.73,29.73,0,0,1,3.76-13A30.12,30.12,0,0,1,166.72,87a25.57,25.57,0,0,0-34.56-4.76,24.64,24.64,0,0,0-8,9.08Z"/><path class="cls-1" d="M111.4,186.88h-.24a30.12,30.12,0,0,1-16-53.14,2.21,2.21,0,0,1,1.82-.47,2.35,2.35,0,0,1,1.59,1.07,25.62,25.62,0,0,0,21.91,12.36c.44,0,.91,0,1.39,0a2.32,2.32,0,0,1,2.3,1.59,2.25,2.25,0,0,1-1,2.61,25.61,25.61,0,0,0-9.67,32.73,2.29,2.29,0,0,1-.2,2.3,2.31,2.31,0,0,1-1.9,1ZM96.18,139a25.58,25.58,0,0,0,11.61,42.64,30.14,30.14,0,0,1,7.93-30.75,29.71,29.71,0,0,1-10.31-3.65A30.69,30.69,0,0,1,96.18,139Z"/><path class="cls-1" d="M120.47,151.26A30.08,30.08,0,1,1,138.38,97a30.64,30.64,0,0,1,6.54,6.62,29.83,29.83,0,0,1,4.24,8.36,2.26,2.26,0,0,1-1.51,2.85,23.66,23.66,0,0,0-11.92,8.4,23.6,23.6,0,0,0-3.49,21.68,2.23,2.23,0,0,1-.16,1.82,2.31,2.31,0,0,1-1.46,1.11,25.26,25.26,0,0,0-7.41,3.09,2.12,2.12,0,0,1-1.08.32Zm0-55.63a25.56,25.56,0,1,0,0,51.11h.84a29.42,29.42,0,0,1,5.94-2.69,28.7,28.7,0,0,1-.79-6.7,27.94,27.94,0,0,1,5.62-16.88,28.48,28.48,0,0,1,6.3-6.1,26.53,26.53,0,0,1,5.71-3.09,25.64,25.64,0,0,0-23.62-15.65Z"/><path class="cls-1" d="M160.77,213.67a29.34,29.34,0,0,1-13.59-3.25,30.83,30.83,0,0,1-10.38-8.64,2.34,2.34,0,0,1-.28-2.34,2.37,2.37,0,0,1,1.9-1.35,25.36,25.36,0,0,0,14.19-5.62,25.86,25.86,0,0,0,8.4-12.53,2.3,2.3,0,0,1,1.74-1.58,2.37,2.37,0,0,1,2.22.79,25.41,25.41,0,0,0,19.89,9.55c.83,0,1.67,0,2.5-.12a2.36,2.36,0,0,1,2,.8,2.21,2.21,0,0,1,.48,2.06,30.39,30.39,0,0,1-10.62,15.89,29.79,29.79,0,0,1-8.52,4.63,29.1,29.1,0,0,1-9.91,1.71ZM143.14,202a25.36,25.36,0,0,0,17.63,7,25.42,25.42,0,0,0,15.65-5.35,26,26,0,0,0,8-10.46,30,30,0,0,1-20.33-8.36,30.17,30.17,0,0,1-21,17.12Z"/><path class="cls-1" d="M136.56,202.77a30.1,30.1,0,0,1-28.33-40.18,29.05,29.05,0,0,1,4.83-8.64,30.17,30.17,0,0,1,16.49-10.5,2.25,2.25,0,0,1,2.69,1.51,23.56,23.56,0,0,0,22.31,16,23.73,23.73,0,0,0,7-1.07,2.23,2.23,0,0,1,2.78,1.3,30,30,0,0,1-27.82,41.57Zm-7.93-54.4a25.94,25.94,0,0,0-12.08,8.36A25.39,25.39,0,0,0,111,172.66a25.56,25.56,0,0,0,51.12,0,26.55,26.55,0,0,0-1.23-7.89A28.21,28.21,0,0,1,138,160.1a28.34,28.34,0,0,1-9.4-11.73Z"/><path class="cls-1" d="M212.52,168.57a2.3,2.3,0,0,1-1.31-.43,2.36,2.36,0,0,1-1-2.14,23.49,23.49,0,0,0,.16-2.9,25.58,25.58,0,0,0-16.72-24h0s-.12,0-.2-.08a2.25,2.25,0,0,1,.28-4.16A25.55,25.55,0,0,0,210,115.79a2.41,2.41,0,0,1,1.19-1.62,2.13,2.13,0,0,1,2,0,30,30,0,0,1,17.12,27.18,30.07,30.07,0,0,1-16.8,27,2,2,0,0,1-1,.2Zm-12.64-31.5a30.12,30.12,0,0,1,9.59,8.72,29.5,29.5,0,0,1,5.5,16.44,25.23,25.23,0,0,0,6.86-7.21,25.53,25.53,0,0,0,4-13.67,25.52,25.52,0,0,0-12-21.68,29.64,29.64,0,0,1-5.95,10.86,32,32,0,0,1-7.92,6.54Z"/><path class="cls-1" d="M184.9,193.26A29.92,29.92,0,0,1,161.44,182a2.23,2.23,0,0,1-.39-2.1,25.61,25.61,0,0,0,1.07-7.34,25.92,25.92,0,0,0-1.94-9.78,2.32,2.32,0,0,1,0-1.86,2.05,2.05,0,0,1,1.38-1.19,23.85,23.85,0,0,0,11.85-8.4,23.37,23.37,0,0,0,4.68-14.07c0-.48,0-1,0-1.47a2.24,2.24,0,0,1,1.9-2.37,29.17,29.17,0,0,1,4.95-.4,30.12,30.12,0,0,1,0,60.23Zm-19.18-13.2a25.56,25.56,0,1,0,19.18-42.47c-.75,0-1.5,0-2.26.07a27.76,27.76,0,0,1-5.54,16.41,28.39,28.39,0,0,1-6.23,6.1,27.92,27.92,0,0,1-5.66,3.13,30.46,30.46,0,0,1,1.46,9.27,30.93,30.93,0,0,1-.95,7.49Z"/><path class="cls-1" d="M194.49,139.33a1.89,1.89,0,0,1-.79-.16,25.61,25.61,0,0,0-8.84-1.59,24.55,24.55,0,0,0-4.2.36,2.22,2.22,0,0,1-1.78-.47,2.37,2.37,0,0,1-.87-1.67,23.61,23.61,0,0,0-21.2-22,2.3,2.3,0,0,1-2.06-2.22v-.75a30.08,30.08,0,1,1,60.15,0,29.56,29.56,0,0,1-5.55,17.39,30.05,30.05,0,0,1-14.18,10.86c-.12.2-.4.24-.68.24Zm-9.59-6.26a30.18,30.18,0,0,1,9.59,1.54,25.6,25.6,0,0,0,11.26-8.91,25.56,25.56,0,1,0-46.37-16.09,28.18,28.18,0,0,1,23,23.54c.83,0,1.66-.08,2.53-.08Z"/></svg>