<svg id="Layer_1" data-name="Layer 1" xmlns="http://www.w3.org/2000/svg" viewBox="0 0 300 300"><defs><style>.cls-1{fill:#f79f1e;}</style></defs><path class="cls-1" d="M196.33,172.84V100.39A12.9,12.9,0,0,0,183,87H100a12.9,12.9,0,0,0-13.38,13.38V145.9a2.68,2.68,0,0,0,5.35,0V100.41a7.64,7.64,0,0,1,8-8h83a7.64,7.64,0,0,1,8,8v72.27H108a2.68,2.68,0,0,0,0,5.35,16.06,16.06,0,1,1-16.06,16.06v-31l32.12-32.12,35.58,35.58a2.68,2.68,0,0,0,3.79-3.78l-19.52-19.52,12.27-12.28,24.88,24.88a2.68,2.68,0,0,0,3.78-3.79l-26.77-26.76a2.66,2.66,0,0,0-3.78,0l-14.17,14.16L126,125.27h0a2.67,2.67,0,0,0-3.79,0l-34.8,34.79a2.71,2.71,0,0,0-.78,1.9v32.12a21.43,21.43,0,0,0,17.35,21,2.72,2.72,0,0,0,1.39.39h88.32a21.41,21.41,0,0,0,2.68-42.64Zm-2.68,37.29h-71.5a21.37,21.37,0,0,0,0-32.12h71.5a16.06,16.06,0,1,1,0,32.12Z"/><path class="cls-1" d="M148.15,108.42A10.7,10.7,0,1,0,145,116,10.74,10.74,0,0,0,148.15,108.42Zm-16.06,0a5.34,5.34,0,1,1,1.57,3.79A5.35,5.35,0,0,1,132.09,108.42Z"/></svg>