<svg id="Layer_1" data-name="Layer 1" xmlns="http://www.w3.org/2000/svg" viewBox="0 0 300 300"><defs><style>.cls-1{fill:#f79f1e;}</style></defs><path class="cls-1" d="M145.14,207.25a5.08,5.08,0,0,1-2.43-.62C113.24,191,97.26,177,97.26,147.56V96.11a2.26,2.26,0,0,1,1.92-2.24l6.44-1a116.25,116.25,0,0,0,31-9.21l7.56-3.45a2.29,2.29,0,0,1,1.85,0l9.6,4.21a117.36,117.36,0,0,0,31.73,8.91l3.66.48A2.27,2.27,0,0,1,193,96v51.45a61.06,61.06,0,0,1-2.07,16.4,2.27,2.27,0,1,1-4.37-1.2,56.64,56.64,0,0,0,1.9-15.2V98l-1.69-.22a121.9,121.9,0,0,1-33-9.25l-8.66-3.8-6.63,3a121.45,121.45,0,0,1-32.21,9.57l-4.52.7v49.51c0,27.29,14.51,40,43.07,55.08a.58.58,0,0,0,.51,0c3.79-2,7.06-3.82,10-5.57a2.27,2.27,0,0,1,2.3,3.91c-3,1.78-6.34,3.63-10.16,5.65a5,5,0,0,1-2.39.6Z"/><path class="cls-1" d="M136,162.26a2.21,2.21,0,0,1-1.25-.38l-14.49-9.63a2.26,2.26,0,1,1,2.51-3.77l12.95,8.6,31.53-31.43a2.27,2.27,0,1,1,3.2,3.21L137.56,161.6a2.26,2.26,0,0,1-1.61.66Z"/><path class="cls-1" d="M180,220.57a6.82,6.82,0,0,1-4.84-2,6.91,6.91,0,0,1-2-4.43,27.1,27.1,0,0,1-7.39-2.7,6.86,6.86,0,0,1-4.65,1.81h0a6.81,6.81,0,0,1-4.87-2,7,7,0,0,1-.56-9.16,27.62,27.62,0,0,1-3.36-7.57,6.8,6.8,0,0,1-4.21-2,6.88,6.88,0,0,1-2-4.94,7,7,0,0,1,6-6.91,27.73,27.73,0,0,1,3.06-7.73,7,7,0,0,1,.36-9.44,6.84,6.84,0,0,1,4.91-2.06h0a6.77,6.77,0,0,1,4.41,1.61A27,27,0,0,1,172,160a7,7,0,0,1,6.91-6.91,6.64,6.64,0,0,1,4.87,2,6.87,6.87,0,0,1,2,4.85,27.13,27.13,0,0,1,6.85,2.8l.27-.27a6.84,6.84,0,0,1,4.91-2.06h0a6.77,6.77,0,0,1,4.86,2,7,7,0,0,1,0,9.82l-.21.22a27.85,27.85,0,0,1,2.86,6.66H206a6.8,6.8,0,0,1,4.84,2,6.92,6.92,0,0,1,2,4.93,7,7,0,0,1-6.91,7h-.3a27.85,27.85,0,0,1-2.57,6.88l.4.4a7,7,0,0,1,0,9.82,6.88,6.88,0,0,1-4.92,2.06h0a6.82,6.82,0,0,1-4.84-2,27.3,27.3,0,0,1-6.81,3.24v.17a7,7,0,0,1-6.9,7Zm-2.34-8.25v1.32a2.41,2.41,0,0,0,.71,1.72A2.26,2.26,0,0,0,180,216h0a2.44,2.44,0,0,0,2.39-2.45V212.2a2.45,2.45,0,0,0,0-.27,2.27,2.27,0,0,1,1.72-2.42,22.78,22.78,0,0,0,8.53-4.09,2.27,2.27,0,0,1,3.15.38l.17.2,1,1a2.29,2.29,0,0,0,1.65.69h0a2.34,2.34,0,0,0,1.69-.71,2.47,2.47,0,0,0,0-3.45l-1-1-.35-.29a2.28,2.28,0,0,1-.66-3.08,23.46,23.46,0,0,0,3.27-8.8,2.27,2.27,0,0,1,2.61-1.89l.39,0H206a2.44,2.44,0,0,0,2.39-2.45,2.4,2.4,0,0,0-.7-1.72,2.48,2.48,0,0,0-1.65-.68h-1.37a2.37,2.37,0,0,0-.52.06,2.24,2.24,0,0,1-1.73-.3,2.27,2.27,0,0,1-1-1.45,23.08,23.08,0,0,0-3.67-8.57,2.26,2.26,0,0,1,.5-3.11,1.81,1.81,0,0,0,.3-.25l1-1a2.44,2.44,0,0,0,0-3.44,2.31,2.31,0,0,0-1.64-.69h0a2.35,2.35,0,0,0-1.68.72l-1,1a3.75,3.75,0,0,0-.26.33,2.27,2.27,0,0,1-3.14.58,22.35,22.35,0,0,0-8.66-3.56,2.27,2.27,0,0,1-1.86-2.41,1.11,1.11,0,0,0,0-.19V160a2.44,2.44,0,0,0-.7-1.72,2.3,2.3,0,0,0-1.65-.68,2.44,2.44,0,0,0-2.39,2.45v1.54a2.3,2.3,0,0,1-1.83,2.42,22.78,22.78,0,0,0-8.92,3.79,2.26,2.26,0,0,1-2.91-.25l-.88-.88a2.27,2.27,0,0,0-1.64-.69h0a2.34,2.34,0,0,0-1.69.71,2.46,2.46,0,0,0,0,3.45l.9.91a2.26,2.26,0,0,1,.28,2.86,23.41,23.41,0,0,0-3.69,9.33,2.27,2.27,0,0,1-2.23,1.91H153a2.44,2.44,0,0,0-2.39,2.45,2.36,2.36,0,0,0,.7,1.72A2.23,2.23,0,0,0,153,190h1.15a2.27,2.27,0,0,1,2.22,1.81,22.84,22.84,0,0,0,4.07,9.13,2.28,2.28,0,0,1-.21,2.94l-.71.73a2.44,2.44,0,0,0,0,3.44,2.31,2.31,0,0,0,1.64.69h0a2.35,2.35,0,0,0,1.68-.72l1-1a2.29,2.29,0,0,1,2.83-.33,22.48,22.48,0,0,0,9.1,3.29,2.27,2.27,0,0,1,2,2.25v.1ZM206,181.38h0Z"/><path class="cls-1" d="M179.39,201.1a14.49,14.49,0,0,1-10.33-4.24,14,14,0,0,1-4.15-10,14.56,14.56,0,0,1,14.59-14.34,14.74,14.74,0,0,1,10.39,4.24,14,14,0,0,1,4.15,10,14.54,14.54,0,0,1-14.58,14.33Zm.17-24h-.05a10,10,0,0,0-10.06,9.81,9.47,9.47,0,0,0,2.81,6.78,10,10,0,0,0,7.13,2.92h0a10,10,0,0,0,10.07-9.82,9.48,9.48,0,0,0-2.81-6.78,10,10,0,0,0-7.13-2.91Zm12.21,9.7h0Z"/></svg>