<svg id="Layer_1" data-name="Layer 1" xmlns="http://www.w3.org/2000/svg" viewBox="0 0 300 300"><defs><style>.cls-1{fill:#f79f1e;}</style></defs><path class="cls-1" d="M176,229.86H120.78a10.5,10.5,0,0,1-10.49-10.49V189.05a10.5,10.5,0,0,1,10.49-10.5H176a10.51,10.51,0,0,1,10.49,10.5v30.31a10.51,10.51,0,0,1-10.5,10.5Zm-55.22-46.6a5.79,5.79,0,0,0-5.79,5.79v30.31a5.79,5.79,0,0,0,5.79,5.79H176a5.79,5.79,0,0,0,5.79-5.79V189a5.78,5.78,0,0,0-5.79-5.78Z"/><path class="cls-1" d="M113.32,161.16a2.5,2.5,0,0,1-1-.2,2.36,2.36,0,0,1-1.39-2.15V140.87A12.63,12.63,0,0,1,99.38,128.3V83.13A12.63,12.63,0,0,1,112,70.52h72.8A12.63,12.63,0,0,1,197.4,83.13V128.3a12.62,12.62,0,0,1-12.61,12.61H136.9l-22,19.65a2.37,2.37,0,0,1-1.57.6ZM112,75.23a7.9,7.9,0,0,0-7.9,7.9V128.3a7.91,7.91,0,0,0,7.9,7.91h1.33a2.36,2.36,0,0,1,2.36,2.35v15l18.76-16.76a2.38,2.38,0,0,1,1.57-.6h48.78a7.91,7.91,0,0,0,7.91-7.9V83.14a7.91,7.91,0,0,0-7.91-7.91Z"/><path class="cls-1" d="M135.28,106.4a5.25,5.25,0,1,1-5.25-5.25,5.25,5.25,0,0,1,5.25,5.25"/><path class="cls-1" d="M153.64,106.4a5.25,5.25,0,1,1-5.25-5.25,5.25,5.25,0,0,1,5.25,5.25"/><path class="cls-1" d="M172,106.4a5.25,5.25,0,1,1-5.25-5.25A5.25,5.25,0,0,1,172,106.4"/><path class="cls-1" d="M130.49,214a9.77,9.77,0,1,1,9.76-9.76A9.77,9.77,0,0,1,130.49,214Zm0-14.82a5.06,5.06,0,1,0,5.06,5.06A5.07,5.07,0,0,0,130.49,199.15Z"/><path class="cls-1" d="M164.6,214a9.77,9.77,0,1,1,9.76-9.76A9.78,9.78,0,0,1,164.6,214Zm0-14.82a5.06,5.06,0,1,0,5.05,5.06A5.07,5.07,0,0,0,164.6,199.15Z"/><path class="cls-1" d="M147.49,172.31a10,10,0,1,1,10-10A10,10,0,0,1,147.49,172.31Zm0-15.35a5.33,5.33,0,1,0,5.32,5.32A5.33,5.33,0,0,0,147.49,157Z"/><path class="cls-1" d="M147.49,183.26a2.35,2.35,0,0,1-2.35-2.35V170a2.35,2.35,0,1,1,4.7,0v10.95A2.35,2.35,0,0,1,147.49,183.26Z"/></svg>