<svg id="Layer_1" data-name="Layer 1" xmlns="http://www.w3.org/2000/svg" viewBox="0 0 300 300"><defs><style>.cls-1{fill:#f79f1e;}</style></defs><path class="cls-1" d="M127.55,124.47A2.76,2.76,0,0,0,124,123l-28.24,11.7a2.89,2.89,0,0,0,0,5.26L124,151.64a2.67,2.67,0,0,0,1.06.21,2.76,2.76,0,0,0,1-5.3l-22.3-9.24,22.3-9.24a2.75,2.75,0,0,0,1.49-3.6Z"/><path class="cls-1" d="M144,113.48a2.76,2.76,0,0,0-3.4,1.9L128,159.64a2.77,2.77,0,0,0,1.9,3.41,2.84,2.84,0,0,0,.76.1,2.74,2.74,0,0,0,2.64-2l12.57-44.26a2.75,2.75,0,0,0-1.9-3.41Z"/><path class="cls-1" d="M199.62,203.56h5.51v5.51h-5.51Z"/><path class="cls-1" d="M231.77,128.25H212.53V93.53A7.55,7.55,0,0,0,205,86H73.08a7.54,7.54,0,0,0-7.54,7.53V187a7.54,7.54,0,0,0,7.54,7.53l49.4-.09v14.63h-7.35v5.51H139v5a4.3,4.3,0,0,0,4.29,4.3h30a4.3,4.3,0,0,0,4.29-4.3v-1.33h54.19a6.44,6.44,0,0,0,6.42-6.43V134.68a6.43,6.43,0,0,0-6.42-6.43ZM73.07,191.77V189a2,2,0,0,1-2-2V93.54a2.06,2.06,0,0,1,2-2H205a2,2,0,0,1,2,2v34.71H173a6.38,6.38,0,0,0-4.81,2.2l-18-7.47a2.76,2.76,0,1,0-2.11,5.09l18.52,7.68v3.13L148,146.55a2.76,2.76,0,0,0,1.05,5.3,2.82,2.82,0,0,0,1.06-.21l16.41-6.8v12.79l-23.4-.12a4.4,4.4,0,0,0-4.41,4.43l.23,26.95-65.9.13ZM128,209.06V194.42l11,0v14.66Zm44.08,9.3H144.52v-24h0V163.15h27.55Zm60.61-6.54a.93.93,0,0,1-.92.92H177.58V161.93a4.3,4.3,0,0,0-4.29-4.29h-1.22v-23a.93.93,0,0,1,.92-.92h58.78a.93.93,0,0,1,.91.92Z"/><path class="cls-1" d="M155.54,209.07h5.51v5.51h-5.51Z"/></svg>