<svg id="Layer_1" data-name="Layer 1" xmlns="http://www.w3.org/2000/svg" viewBox="0 0 300 300"><defs><style>.cls-1{fill:#f79f1e;}</style></defs><path class="cls-1" d="M175.73,176.93h32.63a24.65,24.65,0,0,0,0-49.29,22.82,22.82,0,0,0-6,.68,44.07,44.07,0,0,0,.68-8.16C203.26,95.52,183,75.3,158.22,75.3a45.06,45.06,0,0,0-44.36,37.05,37.5,37.5,0,0,0-6.29-.68,32.63,32.63,0,1,0,0,65.26h24.65v21.75h-17a12.45,12.45,0,1,0-12.24,15,12.57,12.57,0,0,0,12.24-9.86h19.54a2.61,2.61,0,0,0,2.55-2.55v-24.3h14.11V206a12.45,12.45,0,1,0,15,12.24A12.57,12.57,0,0,0,156.52,206V176.93h14.11v24.3a2.61,2.61,0,0,0,2.54,2.55h19.55A12.45,12.45,0,1,0,205,188.83a12.58,12.58,0,0,0-12.24,9.85h-17ZM103,208.54a7.31,7.31,0,1,1,7.31-7.31A7.25,7.25,0,0,1,103,208.54Zm58.3,9.69a7.31,7.31,0,1,1-7.31-7.31,7.25,7.25,0,0,1,7.31,7.31ZM80,144.3a27.64,27.64,0,0,1,27.53-27.54,29.58,29.58,0,0,1,7.65,1,2.17,2.17,0,0,0,2-.34,2.45,2.45,0,0,0,1.19-1.87,40,40,0,0,1,79.71,4.76,38.08,38.08,0,0,1-1.7,11.56,2.42,2.42,0,0,0,.85,2.72A2.34,2.34,0,0,0,200,135a18.28,18.28,0,0,1,8.5-1.87,19.55,19.55,0,0,1,0,39.09h-101A28,28,0,0,1,80,144.3ZM205,193.92a7.31,7.31,0,1,1-7.31,7.31A7.26,7.26,0,0,1,205,193.92Z"/></svg>