<svg id="Layer_1" data-name="Layer 1" xmlns="http://www.w3.org/2000/svg" viewBox="0 0 300 300"><defs><style>.cls-1{fill:#f79f1e;}</style></defs><path class="cls-1" d="M200.6,201.4h-7.95a2.65,2.65,0,1,1,0-5.3h7.95a5.29,5.29,0,0,0,5.3-5.3V95.4a5.29,5.29,0,0,0-5.3-5.3H94.6a5.29,5.29,0,0,0-5.3,5.3v95.4a5.29,5.29,0,0,0,5.3,5.3h8a2.65,2.65,0,1,1,0,5.3h-8A10.6,10.6,0,0,1,84,190.8V95.4A10.58,10.58,0,0,1,94.6,84.8h106a10.58,10.58,0,0,1,10.6,10.6v95.4a10.6,10.6,0,0,1-10.6,10.6Z"/><path class="cls-1" d="M102.55,100.7H99.9a2.65,2.65,0,1,1,0-5.3h2.65a2.65,2.65,0,1,1,0,5.3Z"/><path class="cls-1" d="M115.8,100.7h-2.65a2.65,2.65,0,1,1,0-5.3h2.65a2.65,2.65,0,1,1,0,5.3Z"/><path class="cls-1" d="M195.3,100.7h-2.65a2.65,2.65,0,0,1,0-5.3h2.65a2.65,2.65,0,0,1,0,5.3Z"/><path class="cls-1" d="M198,111.3H97.25a2.65,2.65,0,0,1,0-5.3H198a2.65,2.65,0,1,1,0,5.3Z"/><path class="cls-1" d="M150.25,212H145a8,8,0,0,1-7.95-7.95v-7.3c-.37-.14-.73-.3-1.1-.46l-5.16,5.17a8.16,8.16,0,0,1-11.25,0l-3.75-3.75a8,8,0,0,1,0-11.25l5.17-5.16c-.16-.37-.32-.73-.47-1.1h-7.29a8,8,0,0,1-8-7.95V167a8,8,0,0,1,8-7.95h7.29c.15-.37.31-.73.47-1.1l-5.17-5.16h0a8,8,0,0,1,0-11.24l3.75-3.75a8.16,8.16,0,0,1,11.25,0l5.16,5.17,1.1-.47v-7.29a8,8,0,0,1,7.95-8h5.3a8,8,0,0,1,7.95,8v7.29l1.1.47,5.17-5.17a8.14,8.14,0,0,1,11.24,0l3.75,3.75a8,8,0,0,1,0,11.24l-5.17,5.17c.16.37.32.73.47,1.1h7.29A8,8,0,0,1,190,167v5.3a8,8,0,0,1-7.95,7.95h-7.3c-.14.37-.3.73-.46,1.1l5.17,5.16h0a8,8,0,0,1,0,11.25l-3.75,3.75a8.14,8.14,0,0,1-11.24,0l-5.17-5.17c-.37.16-.73.32-1.1.46v7.3a8,8,0,0,1-7.95,7.95Zm-14.89-21.56a2.59,2.59,0,0,1,1.22.3,24.33,24.33,0,0,0,3.87,1.62,2.64,2.64,0,0,1,1.85,2.52v9.17A2.66,2.66,0,0,0,145,206.7h5.3a2.66,2.66,0,0,0,2.65-2.65v-9.17a2.64,2.64,0,0,1,1.86-2.52,24.62,24.62,0,0,0,3.86-1.62,2.64,2.64,0,0,1,3.1.47l6.49,6.5a2.72,2.72,0,0,0,3.75,0l3.75-3.75h0a2.66,2.66,0,0,0,0-3.75l-6.5-6.49h0a2.64,2.64,0,0,1-.47-3.1,24.33,24.33,0,0,0,1.62-3.87,2.64,2.64,0,0,1,2.52-1.85h9.17a2.66,2.66,0,0,0,2.65-2.65V167a2.66,2.66,0,0,0-2.65-2.65h-9.17a2.64,2.64,0,0,1-2.52-1.86,24.62,24.62,0,0,0-1.62-3.86,2.64,2.64,0,0,1,.47-3.1l6.5-6.49h0a2.66,2.66,0,0,0,0-3.75L172,141.49h0a2.72,2.72,0,0,0-3.75,0l-6.49,6.5a2.64,2.64,0,0,1-3.1.47,24.62,24.62,0,0,0-3.86-1.62,2.64,2.64,0,0,1-1.86-2.52v-9.17a2.66,2.66,0,0,0-2.65-2.65H145a2.65,2.65,0,0,0-2.65,2.65v9.17a2.64,2.64,0,0,1-1.85,2.52,24.33,24.33,0,0,0-3.87,1.62,2.64,2.64,0,0,1-3.1-.47l-6.49-6.5a2.72,2.72,0,0,0-3.75,0l-3.74,3.75h0a2.66,2.66,0,0,0,0,3.75l6.5,6.49h0a2.64,2.64,0,0,1,.47,3.1,24.62,24.62,0,0,0-1.62,3.86,2.64,2.64,0,0,1-2.52,1.86h-9.17A2.65,2.65,0,0,0,110.5,167v5.3a2.66,2.66,0,0,0,2.65,2.65h9.17a2.64,2.64,0,0,1,2.52,1.85,24.33,24.33,0,0,0,1.62,3.87,2.64,2.64,0,0,1-.47,3.1l-6.5,6.49a2.66,2.66,0,0,0,0,3.75l3.75,3.75h0a2.72,2.72,0,0,0,3.75,0l6.49-6.5a2.68,2.68,0,0,1,1.88-.77Z"/><path class="cls-1" d="M147.6,182.85A13.26,13.26,0,1,1,157,179a13.29,13.29,0,0,1-9.36,3.88Zm0-21.2h0a8,8,0,1,0,5.62,2.33,7.95,7.95,0,0,0-5.62-2.33Z"/></svg>