<svg id="Layer_1" data-name="Layer 1" xmlns="http://www.w3.org/2000/svg" viewBox="0 0 300 300"><defs><style>.cls-1{fill:#f79f1e;}</style></defs><path class="cls-1" d="M102.45,188.36a3.32,3.32,0,0,0,3.25-2.85,3.19,3.19,0,0,0-.61-2.48,57.25,57.25,0,0,1,36.33-90,3.34,3.34,0,0,0-.65-6.64,2.08,2.08,0,0,0-.61,0A63.88,63.88,0,0,0,99.65,186.94a3.31,3.31,0,0,0,2.8,1.42Z"/><path class="cls-1" d="M221.58,206.66H179.92a63.89,63.89,0,0,0-2.71-115.73l10.91-5.21h0a3.33,3.33,0,0,0,1.73-1.9,3.24,3.24,0,0,0-.14-2.57,3.36,3.36,0,0,0-3-1.92,3.44,3.44,0,0,0-1.45.35l-18.77,8.91a3.4,3.4,0,0,0-1.76,2,3.45,3.45,0,0,0,.28,2.67l10.34,17.93a3.43,3.43,0,0,0,2.92,1.68,3.22,3.22,0,0,0,1.66-.44,3.37,3.37,0,0,0,1.24-4.68L175.1,97.31a57.2,57.2,0,0,1-23.63,109.33H87.21l3.64-3.41h0a3.31,3.31,0,0,0-2.27-5.75,3.3,3.3,0,0,0-2.33.89l-9.8,9.14a3.31,3.31,0,0,0-1.14,2.5,3.13,3.13,0,0,0,.3,1.35,5.39,5.39,0,0,0,.3.52l.21.23a1.09,1.09,0,0,0,.22.26l10,9.3a3.35,3.35,0,1,0,4.56-4.91l-3.67-3.41H221.57a3.35,3.35,0,1,0,0-6.69Z"/><path class="cls-1" d="M115.05,150.65A37.76,37.76,0,1,0,126.14,124a37.76,37.76,0,0,0-11.09,26.65Zm37.78-31a31,31,0,1,1-21.91,9.08,31,31,0,0,1,21.91-9.08Z"/><path className="w-16 h-15 " class="cls-1" d="M152.83,158.09a7.22,7.22,0,0,0,5.23-2.17,7.47,7.47,0,0,0,1.66-8.09c0-.24-.21-.42-.3-.63l11.36-11.36h0a2.21,2.21,0,0,0,.67-1.58,2.18,2.18,0,0,0-.67-1.58,2.32,2.32,0,0,0-3.15,0L156.26,144l-.63-.26a7.41,7.41,0,0,0-4.29-.44,7.33,7.33,0,0,0-3.79,2.05,7.44,7.44,0,0,0,0,10.52,7.26,7.26,0,0,0,5.28,2.27Z"/></svg>