<svg id="Layer_1" data-name="Layer 1" xmlns="http://www.w3.org/2000/svg" viewBox="0 0 300 300"><defs><style>.cls-1{fill:#f79f1e;}</style></defs><path class="cls-1" d="M220.75,213.56H78.44A11.57,11.57,0,0,1,66.88,202V103.56A11.57,11.57,0,0,1,78.44,92H220.75a11.58,11.58,0,0,1,11.56,11.56V202a11.58,11.58,0,0,1-11.56,11.56ZM78.44,97.34a6.24,6.24,0,0,0-6.23,6.22V202a6.24,6.24,0,0,0,6.23,6.22H220.75A6.23,6.23,0,0,0,227,202V103.56a6.23,6.23,0,0,0-6.22-6.22Z"/><path class="cls-1" d="M69.54,130.54h160.1v5.34H69.54Z"/><path class="cls-1" d="M101.08,113.94a7.19,7.19,0,1,1-7.19-7.19,7.19,7.19,0,0,1,7.19,7.19"/><path class="cls-1" d="M128.06,113.94a7.19,7.19,0,1,1-7.19-7.19,7.19,7.19,0,0,1,7.19,7.19"/><path class="cls-1" d="M125.71,193.76l-18-19.92v-3.58l18-19.92,4,3.59-16.41,18.12,16.41,18.13Z"/><path class="cls-1" d="M173.47,193.76l-3.95-3.58,16.41-18.13-16.41-18.12,3.95-3.59,18,19.92v3.58Z"/><path class="cls-1" d="M135.66,195.42l23-49,4.83,2.27-23,49Z"/></svg>