<svg id="Layer_1" data-name="Layer 1" xmlns="http://www.w3.org/2000/svg" viewBox="0 0 300 300"><defs><style>.cls-1{fill:#f79f1e;}</style></defs><path class="cls-1" d="M132.27,118.66c-8.63,0-15.66,6.16-15.66,13.74a10.76,10.76,0,0,0,.14,1.71,13.71,13.71,0,0,0-8.16,12,12.63,12.63,0,0,0,2.94,8,12.65,12.65,0,0,0-2.94,8,13.52,13.52,0,0,0,8,12c.33,7.33,7.22,13.2,15.64,13.2A16.34,16.34,0,0,0,144.69,182a2.23,2.23,0,0,0,.56-1.5V125.59a2.25,2.25,0,0,0-.56-1.5,16.37,16.37,0,0,0-12.42-5.43Zm0,64.15a10.49,10.49,0,0,1-10.89-8,8.75,8.75,0,0,0,6.51-8.29h-4.58a4.26,4.26,0,0,1-3.62,4,9.24,9.24,0,0,1-6.51-8.34,8.32,8.32,0,0,1,3-6.29,2.3,2.3,0,0,0,.78-1.73,2.26,2.26,0,0,0-.78-1.72,8.32,8.32,0,0,1-3-6.3,9.33,9.33,0,0,1,7-8.49h0a4.28,4.28,0,0,1,2.75,1.29,4.35,4.35,0,0,1,1.22,2.78h4.58a8.82,8.82,0,0,0-7.47-8.54,5.12,5.12,0,0,1-.07-.77c0-5.06,5-9.17,11.07-9.17a12,12,0,0,1,8.4,3.26v21.31a11.15,11.15,0,0,0-8.32,7.39l-.11.33,4.34,1.45.11-.33h0a6.61,6.61,0,0,1,4-4.1v27a11.87,11.87,0,0,1-8.4,3.26Z"/><path class="cls-1" d="M157.62,129.18a2.26,2.26,0,0,0,1.84.93h4.17a6.85,6.85,0,1,0-.84-4.58h-2.16l-4.36-5.94a2.28,2.28,0,0,0-1.85-.93h-6.87v4.58h5.71Zm11.92-4.79a2.29,2.29,0,1,1-2.29,2.29A2.28,2.28,0,0,1,169.54,124.39Z"/><path class="cls-1" d="M173.17,141.57h-9.4l-4.81-6a2.26,2.26,0,0,0-1.79-.86H148v4.58h8.07l4.81,6a2.26,2.26,0,0,0,1.79.86h10.5a6.87,6.87,0,1,0,0-4.58Zm8.75,2.29a2.29,2.29,0,1,1-2.3-2.29A2.3,2.3,0,0,1,181.92,143.86Z"/><path class="cls-1" d="M169.54,172.5a6.84,6.84,0,0,0-5.91,3.44h-4.17a2.27,2.27,0,0,0-1.84.94l-4.36,5.94h-5.71v4.58h6.87a2.29,2.29,0,0,0,1.85-.94l4.36-5.94h2.16a6.85,6.85,0,1,0,6.75-8Zm0,9.17a2.29,2.29,0,1,1,2.3-2.29A2.28,2.28,0,0,1,169.54,181.67Z"/><path class="cls-1" d="M179.17,155.32a6.88,6.88,0,0,0-6.46,4.58h-10.5a2.32,2.32,0,0,0-1.79.86l-4.81,6h-8.06v4.59h9.16a2.29,2.29,0,0,0,1.79-.86l4.81-6h9.4a6.87,6.87,0,1,0,6.46-9.16Zm0,9.16a2.29,2.29,0,1,1,2.29-2.29A2.29,2.29,0,0,1,179.17,164.48Z"/><path class="cls-1" d="M215,137.5h-4.47a4.36,4.36,0,0,1-2.55-.92,4.42,4.42,0,0,1-1.51-2.26,62.36,62.36,0,0,0-4-9.71,4.35,4.35,0,0,1,.63-5.13l3.17-3.18a2.27,2.27,0,0,0,.28-2.9,71,71,0,0,0-19.33-19.33,2.3,2.3,0,0,0-2.9.28l-3.18,3.17a4.32,4.32,0,0,1-2.46,1.16,4.36,4.36,0,0,1-2.67-.53,60.59,60.59,0,0,0-9.71-4A4.35,4.35,0,0,1,164,92.61a4.43,4.43,0,0,1-.93-2.56V85.59a2.28,2.28,0,0,0-1.85-2.25,70.27,70.27,0,0,0-27.34,0A2.29,2.29,0,0,0,132,85.59v4.46a4.34,4.34,0,0,1-3.18,4.07,60.86,60.86,0,0,0-9.7,4,4.36,4.36,0,0,1-5.14-.63l-3.17-3.17a2.29,2.29,0,0,0-2.9-.28A71,71,0,0,0,88.59,113.4a2.3,2.3,0,0,0,.28,2.9l3.18,3.18a4.4,4.4,0,0,1,1.15,2.46,4.34,4.34,0,0,1-.52,2.67,62.36,62.36,0,0,0-4,9.71,4.34,4.34,0,0,1-4.06,3.18H80.11a2.29,2.29,0,0,0-2.25,1.85,70.32,70.32,0,0,0,0,27.35,2.29,2.29,0,0,0,2.25,1.85h4.47a4.34,4.34,0,0,1,4.06,3.18,62.31,62.31,0,0,0,4,9.71,4.35,4.35,0,0,1,.53,2.67,4.4,4.4,0,0,1-1.15,2.46l-3.18,3.18a2.3,2.3,0,0,0-.28,2.9A71,71,0,0,0,107.93,212a2.28,2.28,0,0,0,2.9-.28l3.17-3.17a4.36,4.36,0,0,1,5.14-.63,60.86,60.86,0,0,0,9.7,4A4.37,4.37,0,0,1,132,216v4.46a2.29,2.29,0,0,0,1.86,2.25,70.27,70.27,0,0,0,27.34,0,2.28,2.28,0,0,0,1.85-2.25V216a4.37,4.37,0,0,1,.93-2.55,4.31,4.31,0,0,1,2.25-1.52,61,61,0,0,0,9.71-4,4.36,4.36,0,0,1,2.67-.53,4.32,4.32,0,0,1,2.46,1.16l3.18,3.17a2.29,2.29,0,0,0,2.9.28,71,71,0,0,0,19.33-19.33,2.27,2.27,0,0,0-.28-2.9l-3.17-3.18a4.35,4.35,0,0,1-.63-5.13,62.36,62.36,0,0,0,4-9.71,4.42,4.42,0,0,1,1.51-2.26,4.36,4.36,0,0,1,2.55-.92H215a2.29,2.29,0,0,0,2.24-1.85,69.94,69.94,0,0,0,0-27.35A2.29,2.29,0,0,0,215,137.5ZM213.07,164h-2.55a8.91,8.91,0,0,0-8.43,6.37,57.81,57.81,0,0,1-3.73,9,8.92,8.92,0,0,0,1.45,10.49l1.82,1.82h0a66.66,66.66,0,0,1-15.47,15.48l-1.83-1.82h0a8.92,8.92,0,0,0-10.49-1.45,57.81,57.81,0,0,1-9,3.73,8.91,8.91,0,0,0-6.37,8.43v2.55a65.33,65.33,0,0,1-21.88,0V216a8.94,8.94,0,0,0-6.38-8.43,57.29,57.29,0,0,1-9-3.74,8.94,8.94,0,0,0-10.49,1.46l-1.82,1.82h0a66.28,66.28,0,0,1-15.47-15.48l1.82-1.82h0a9,9,0,0,0,1.45-10.49,55.93,55.93,0,0,1-3.73-9A8.91,8.91,0,0,0,84.57,164H82a65.39,65.39,0,0,1,0-21.89h2.55a8.87,8.87,0,0,0,5.27-1.8A9,9,0,0,0,93,135.71a55.93,55.93,0,0,1,3.73-9,8.92,8.92,0,0,0-1.45-10.49l-1.82-1.82h0a66.28,66.28,0,0,1,15.47-15.48l1.82,1.82h0a8.94,8.94,0,0,0,5,2.45,8.84,8.84,0,0,0,5.48-1,56.31,56.31,0,0,1,9-3.73,9,9,0,0,0,6.38-8.44V87.5a65.86,65.86,0,0,1,21.88,0v2.55a8.94,8.94,0,0,0,6.37,8.44,56,56,0,0,1,9,3.73,9,9,0,0,0,5.48,1,8.88,8.88,0,0,0,5-2.45L186.16,99h0a66.66,66.66,0,0,1,15.47,15.48l-1.82,1.82h0a8.92,8.92,0,0,0-1.45,10.49,56.85,56.85,0,0,1,3.73,9,8.91,8.91,0,0,0,8.43,6.37h2.55A65.39,65.39,0,0,1,213.07,164Z"/><path class="cls-1" d="M147.55,102.62a50.46,50.46,0,1,0,35.63,14.78,50.44,50.44,0,0,0-35.63-14.78Zm0,96.23a45.85,45.85,0,1,1,32.39-13.43,45.81,45.81,0,0,1-32.39,13.43Z"/><path class="cls-1" d="M149.84,143.86h4.58v4.58h-4.58Z"/><path class="cls-1" d="M154.42,153H159v4.58h-4.58Z"/></svg>