<svg id="Layer_1" data-name="Layer 1" xmlns="http://www.w3.org/2000/svg" viewBox="0 0 300 300"><defs><style>.cls-1{fill:#f79f1e;}</style></defs><path class="cls-1" d="M146.62,83c-31,0-62.39,6.52-62.39,19V200.9c0,12.47,31.39,19,62.39,19s62.38-6.53,62.38-19V102c0-12.47-31.38-19-62.38-19Zm0,5C182.15,88,204,96.16,204,102s-21.82,14-57.35,14-57.36-8.14-57.36-14S111.08,88,146.62,88Zm0,126.86c-35.54,0-57.36-8.14-57.36-14v-25c9.8,7.06,32.4,10.63,53.78,11h0a2.51,2.51,0,0,0,0-5c-34.68-.56-53.87-8.6-53.87-13.95v-25a36.79,36.79,0,0,0,9,4.47,2.48,2.48,0,0,0,.84.15,2.51,2.51,0,0,0,.85-4.88c-7.9-2.83-10.72-5.82-10.72-7.67V110c10.08,7.28,33.83,11,57.36,11s47.29-3.76,57.36-11v25c0,5.83-21.82,14-57.36,14-14.94,0-29.17-1.53-40.07-4.32a2.51,2.51,0,1,0-1.24,4.87c11.29,2.89,26,4.47,41.31,4.47,23.54,0,47.29-3.77,57.36-11v25c0,5.12-18.34,13-51.52,13.89a2.52,2.52,0,0,0,.07,5h.07c20.35-.55,41.87-4.19,51.38-11V200.9c0,5.83-21.82,14-57.36,14Z"/><path class="cls-1" d="M199.81,132.4a4.82,4.82,0,1,1-4.81-4.81,4.82,4.82,0,0,1,4.81,4.81"/><path class="cls-1" d="M185.68,136.28a4.82,4.82,0,1,1-4.82-4.82,4.81,4.81,0,0,1,4.82,4.82"/><path class="cls-1" d="M170.11,138.39a4.82,4.82,0,1,1-4.82-4.81,4.82,4.82,0,0,1,4.82,4.81"/><path class="cls-1" d="M200.53,164.93a4.82,4.82,0,1,1-4.82-4.81,4.82,4.82,0,0,1,4.82,4.81"/><path class="cls-1" d="M186.4,168.81a4.82,4.82,0,1,1-4.82-4.81,4.82,4.82,0,0,1,4.82,4.81"/><path class="cls-1" d="M170.83,170.92a4.82,4.82,0,1,1-4.82-4.81,4.82,4.82,0,0,1,4.82,4.81"/><path class="cls-1" d="M201.25,197.91a4.82,4.82,0,1,1-4.81-4.82,4.81,4.81,0,0,1,4.81,4.82"/><path class="cls-1" d="M187.12,201.78A4.82,4.82,0,1,1,182.3,197a4.82,4.82,0,0,1,4.82,4.81"/><path class="cls-1" d="M171.55,203.9a4.82,4.82,0,1,1-4.82-4.82,4.81,4.81,0,0,1,4.82,4.82"/></svg>