<svg id="Layer_1" data-name="Layer 1" xmlns="http://www.w3.org/2000/svg" viewBox="0 0 300 300"><defs><style>.cls-1{fill:#f79f1e;}</style></defs><path class="cls-1" d="M221.93,167a4.56,4.56,0,0,0,0-4.64l-7.61-12.74a9.72,9.72,0,0,0,6.25-9V104.18a9.73,9.73,0,0,0-9.72-9.72H200.3a63.64,63.64,0,0,0-51.11-25.85h-6.83c-26.44,0-48.3,17.38-56,41.23H83.56a12.55,12.55,0,1,0,0,25.09h.27a59.59,59.59,0,0,0,5,18.2c11.57,25.06,23.59,48.4,13.71,73.89a1.87,1.87,0,0,0,.2,1.76,1.9,1.9,0,0,0,1.55.84l53.06.66h0a1.92,1.92,0,0,0,1.35-.58,2,2,0,0,0,.57-1.38,9.24,9.24,0,0,1,9.23-9.23h42.28a1.91,1.91,0,0,0,1.9-1.91V169.33H218a4.52,4.52,0,0,0,4-2.31Zm-43.2-20.53V98.28H201.4v48.21ZM150,134.93h11.95V136a1.91,1.91,0,1,0,3.81,0V108.73a1.91,1.91,0,1,0-3.81,0v1.11H150v-1.11a5.9,5.9,0,0,1,5.89-5.9h19v39.11h-19A5.9,5.9,0,0,1,150,136Zm55.25-36.64h5.6a5.89,5.89,0,0,1,5.88,5.88v36.41a5.89,5.89,0,0,1-5.31,5.85c-1.06.1-2.43,0-6.17.06ZM142.36,72.43h6.83a59.85,59.85,0,0,1,46.31,22H176.82a1.92,1.92,0,0,0-1.91,1.91V99h-19a9.73,9.73,0,0,0-9.72,9.72v1.11H90.41c7.5-21.67,27.59-37.41,52-37.41ZM74.82,122.38a8.74,8.74,0,0,1,8.75-8.72h78.35v17.45H83.57A8.75,8.75,0,0,1,74.82,122.38Zm143.8,42.75a.76.76,0,0,1-.66.38h-7.15a1.91,1.91,0,0,0-1.9,1.91v47.85H167a14.41,14.41,0,0,1-14.39-14.39v-5a1.91,1.91,0,0,0-3.82,0v5A18.23,18.23,0,0,0,160.71,218a13,13,0,0,0-5.08,8.48l-48.58-.6c8.66-25.82-3.37-49.69-14.73-74.29a55.71,55.71,0,0,1-4.64-16.61h58.47V136a9.73,9.73,0,0,0,9.72,9.72h19v2.63a1.91,1.91,0,0,0,1.91,1.91h33.41l8.38,14a.8.8,0,0,1,0,.8Z"/></svg>