<svg id="Layer_1" data-name="Layer 1" xmlns="http://www.w3.org/2000/svg" viewBox="0 0 300 300"><defs><style>.cls-1{fill:#f79f1e;}</style></defs><path class="cls-1" d="M194.36,83.4H105.78A6.64,6.64,0,0,0,99.14,90V200.75a6.66,6.66,0,0,0,6.64,6.65h35.43a8.86,8.86,0,0,0,17.72,0h35.43a6.66,6.66,0,0,0,6.64-6.65V90a6.64,6.64,0,0,0-6.64-6.64Zm-39.86,124a4.43,4.43,0,0,1-8.86,0V189.68h8.86Zm-4.43-39.86a26.56,26.56,0,1,1,18.79-7.78A26.57,26.57,0,0,1,150.07,167.54Zm46.5,33.21a2.22,2.22,0,0,1-2.21,2.22H158.93v-15.5a2.22,2.22,0,0,0-2.22-2.22h-4.42V172a31,31,0,1,0-4.43,0v13.28h-4.43a2.23,2.23,0,0,0-2.22,2.22V203H105.79a2.21,2.21,0,0,1-2.22-2.22V90a2.22,2.22,0,0,1,2.22-2.22h88.57A2.22,2.22,0,0,1,196.57,90Z"/><path class="cls-1" d="M123.5,92.25h53.14v4.43H123.5Z"/><path class="cls-1" d="M108,101.11h84.14v4.43H108Z"/></svg>