<svg width="134" height="121" viewBox="0 0 134 121" fill="none" xmlns="http://www.w3.org/2000/svg">
<g clip-path="url(#clip0_3_81)">
<path d="M132.824 46.0007C132.776 46.0008 132.73 45.9861 132.69 45.9586L67.6747 0.679893C67.4768 0.542744 67.2417 0.469448 67.0009 0.469858C66.7602 0.470269 66.5253 0.544365 66.3279 0.682189L1.78068 45.9582C1.72962 45.994 1.66644 46.008 1.60501 45.9972C1.54359 45.9865 1.48897 45.9517 1.45316 45.9007C1.41735 45.8496 1.40328 45.7864 1.41406 45.725C1.42484 45.6636 1.45958 45.609 1.51064 45.5732L66.058 0.297187C66.3343 0.104262 66.6631 0.000556129 67.0002 2.23041e-06C67.3372 -0.000551668 67.6664 0.102073 67.9434 0.294088L132.959 45.5727C133 45.6013 133.031 45.6423 133.047 45.6897C133.063 45.7371 133.064 45.7884 133.049 45.8361C133.034 45.8839 133.004 45.9256 132.964 45.9552C132.923 45.9848 132.874 46.0008 132.824 46.0007L132.824 46.0007Z" fill="#3F3D56"/>
<path d="M5.46906 47.6057L67.0649 1.95568L129.128 50.8539L70.2385 85.7645L38.2666 78.4767L5.46906 47.6057Z" fill="#E6E6E6"/>
<path d="M40.9653 107.327H10.5355C10.3486 107.327 10.1636 107.291 9.99088 107.22C9.81819 107.148 9.66125 107.043 9.52904 106.911C9.39683 106.779 9.29196 106.623 9.2204 106.45C9.14884 106.277 9.112 106.092 9.112 105.906C9.112 105.719 9.14884 105.534 9.2204 105.361C9.29196 105.188 9.39683 105.032 9.52904 104.9C9.66125 104.768 9.81819 104.663 9.99088 104.592C10.1636 104.52 10.3486 104.484 10.5355 104.484H40.9653C41.1522 104.484 41.3372 104.52 41.5099 104.592C41.6826 104.663 41.8396 104.768 41.9718 104.9C42.104 105.032 42.2089 105.188 42.2804 105.361C42.352 105.534 42.3888 105.719 42.3888 105.906C42.3888 106.092 42.352 106.277 42.2804 106.45C42.2089 106.623 42.104 106.779 41.9718 106.911C41.8396 107.043 41.6826 107.148 41.5099 107.22C41.3372 107.291 41.1522 107.327 40.9653 107.327V107.327Z" fill="#F98600"/>
<path d="M21.453 101.215H10.5355C10.3486 101.215 10.1636 101.179 9.99088 101.107C9.81819 101.036 9.66125 100.931 9.52904 100.799C9.39683 100.667 9.29196 100.51 9.2204 100.338C9.14884 100.165 9.112 99.9801 9.112 99.7932C9.112 99.6064 9.14884 99.4214 9.2204 99.2488C9.29196 99.0762 9.39683 98.9194 9.52904 98.7873C9.66125 98.6553 9.81819 98.5506 9.99088 98.4793C10.1636 98.4079 10.3486 98.3713 10.5355 98.3716H21.453C21.6399 98.3713 21.8249 98.4079 21.9976 98.4793C22.1703 98.5506 22.3273 98.6553 22.4595 98.7873C22.5917 98.9194 22.6966 99.0762 22.7681 99.2488C22.8397 99.4214 22.8765 99.6064 22.8765 99.7932C22.8765 99.9801 22.8397 100.165 22.7681 100.338C22.6966 100.51 22.5917 100.667 22.4595 100.799C22.3273 100.931 22.1703 101.036 21.9976 101.107C21.8249 101.179 21.6399 101.215 21.453 101.215Z" fill="#F98600"/>
<path d="M67.931 73.0322C67.6997 73.0325 67.4706 72.9876 67.2565 72.9001L29.2685 57.1378V7.79895C29.269 7.36266 29.4425 6.94439 29.751 6.63589C30.0595 6.32738 30.4778 6.15384 30.9141 6.15334H103.791C104.228 6.15384 104.646 6.32738 104.954 6.63589C105.263 6.94439 105.436 7.36266 105.437 7.79895V57.1722L105.366 57.2027L68.6259 72.8924C68.4059 72.9849 68.1697 73.0324 67.931 73.0322Z" fill="white"/>
<path d="M67.931 73.1497C67.6844 73.1499 67.4401 73.1021 67.2117 73.0089L29.1509 57.2163V7.79894C29.1515 7.33148 29.3374 6.88333 29.6679 6.55278C29.9985 6.22224 30.4466 6.03631 30.9141 6.03578H103.791C104.259 6.03631 104.707 6.22224 105.037 6.55278C105.368 6.88333 105.554 7.33148 105.554 7.79894V57.2498L68.6721 73.0004C68.4375 73.0991 68.1855 73.1499 67.931 73.1497ZM29.6211 56.9022L67.391 72.5742C67.7433 72.7171 68.1379 72.7148 68.4884 72.5677L105.084 56.9394V7.79894C105.084 7.45614 104.948 7.12751 104.705 6.88511C104.463 6.64272 104.134 6.50636 103.791 6.50596H30.9141C30.5713 6.50636 30.2427 6.64272 30.0003 6.88511C29.7579 7.12751 29.6215 7.45614 29.6211 7.79894L29.6211 56.9022Z" fill="#3F3D56"/>
<path d="M132.354 45.5306H132.307L105.319 57.0546L68.3941 72.8219C68.2498 72.8826 68.095 72.9143 67.9385 72.9151C67.7819 72.9159 67.6268 72.8858 67.4819 72.8266L29.386 57.0217L1.73492 45.5494L1.69268 45.5306H1.64561C1.20932 45.5311 0.79103 45.7046 0.482522 46.0131C0.174015 46.3216 0.000484105 46.7399 0 47.1762V118.643C0.000484726 119.079 0.174015 119.497 0.482522 119.806C0.79103 120.114 1.20932 120.288 1.64561 120.288H132.354C132.791 120.288 133.209 120.114 133.517 119.806C133.826 119.497 134 119.079 134 118.643V47.1762C134 46.7399 133.826 46.3216 133.517 46.0131C133.209 45.7046 132.791 45.5311 132.354 45.5306ZM133.53 118.643C133.53 118.955 133.406 119.253 133.185 119.474C132.965 119.694 132.666 119.818 132.354 119.818H1.64561C1.33391 119.818 1.035 119.694 0.814592 119.474C0.594182 119.253 0.4703 118.955 0.470175 118.643V47.1762C0.470602 46.8722 0.588509 46.5802 0.799247 46.3611C1.00998 46.1421 1.29724 46.0129 1.60096 46.0008L29.386 57.5295L67.301 73.2615C67.7114 73.4285 68.1713 73.426 68.5798 73.2545L105.319 57.5647L132.401 46.0008C132.705 46.0138 132.991 46.1433 133.201 46.3623C133.411 46.5812 133.529 46.8727 133.53 47.1762V118.643Z" fill="#3F3D56"/>
<path d="M67.5513 59.0416C66.1489 59.0442 64.7837 58.5907 63.6616 57.7495L63.592 57.6973L48.9435 46.4818C48.2651 45.962 47.6957 45.3137 47.2678 44.5739C46.84 43.834 46.562 43.0171 46.4499 42.1699C46.3377 41.3226 46.3936 40.4616 46.6142 39.6359C46.8348 38.8102 47.2159 38.0361 47.7357 37.3577C48.2555 36.6793 48.9038 36.1099 49.6436 35.6821C50.3835 35.2542 51.2003 34.9763 52.0476 34.8641C52.8949 34.752 53.7559 34.8078 54.5816 35.0284C55.4073 35.249 56.1814 35.6301 56.8598 36.1499L66.348 43.4253L88.7702 14.1836C89.2902 13.5053 89.9388 12.9362 90.6788 12.5086C91.4187 12.081 92.2357 11.8033 93.083 11.6915C93.9303 11.5796 94.7913 11.6358 95.6169 11.8567C96.4425 12.0776 97.2165 12.459 97.8947 12.9791L97.7553 13.1684L97.8983 12.9818C99.2664 14.0333 100.162 15.5845 100.387 17.2951C100.613 19.0057 100.151 20.736 99.1028 22.1064L72.729 56.5018C72.119 57.2943 71.3346 57.9358 70.4367 58.3762C69.5388 58.8167 68.5514 59.0444 67.5513 59.0416V59.0416Z" fill="#F98600"/>
</g>
<defs>
<clipPath id="clip0_3_81">
<rect width="134" height="120.288" fill="white"/>
</clipPath>
</defs>
</svg>
